<svg id="Group_13" data-name="Group 13" xmlns="http://www.w3.org/2000/svg" width="93.229" height="93.229" viewBox="0 0 93.229 93.229">
  <path id="Subtraction_1" data-name="Subtraction 1" d="M38.565,78.027a39.227,39.227,0,0,1-8.04-.924,38.809,38.809,0,0,1-7.457-2.471v-18.1a2.022,2.022,0,0,0,.589-.305,2.15,2.15,0,0,0,.466-.478,2.3,2.3,0,0,0,0-2.641,2.15,2.15,0,0,0-.466-.478,2.022,2.022,0,0,0-.589-.305V29.026l9.145,3.7a.8.8,0,0,0,.3.059.8.8,0,0,0,.4-.109.87.87,0,0,0,.307-.3h0l3.609-5.54,1.387.555V73.065C38.218,73.373,38.356,76,38.565,78.027Zm.995,0c.208-2.026.346-4.653.346-4.96V27.384l1.389-.556,3.584,5.5a.838.838,0,0,0,.732.451.8.8,0,0,0,.3-.059l9.145-3.7V52.319a2.022,2.022,0,0,0-.589.305A2.15,2.15,0,0,0,54,53.1a2.3,2.3,0,0,0,0,2.641,2.149,2.149,0,0,0,.466.478,2.022,2.022,0,0,0,.589.305l-.151,18.13A38.819,38.819,0,0,1,47.518,77.1,39.216,39.216,0,0,1,39.56,78.026ZM17.573,71.614h0A39.2,39.2,0,0,1,4.816,57.808,38.84,38.84,0,0,1,0,39.015a39.3,39.3,0,0,1,.793-7.863A38.8,38.8,0,0,1,6.663,17.2,39.129,39.129,0,0,1,23.828,3.066,38.818,38.818,0,0,1,31.152.793a39.395,39.395,0,0,1,15.726,0,38.8,38.8,0,0,1,13.951,5.87A39.129,39.129,0,0,1,74.963,23.828a38.82,38.82,0,0,1,2.273,7.323,39.35,39.35,0,0,1-.457,17.7,38.937,38.937,0,0,1-9.054,16.583,39.246,39.246,0,0,1-7.175,6.121V56.527a2.022,2.022,0,0,0,.589-.305,2.15,2.15,0,0,0,.466-.478,2.3,2.3,0,0,0,0-2.641,2.15,2.15,0,0,0-.466-.478,2.022,2.022,0,0,0-.589-.305V31.881l7.2,3.889a.8.8,0,0,0,.382.1.837.837,0,0,0,.753-.489.922.922,0,0,0-.369-1.2L57.3,28.118l.019-.008a.872.872,0,0,0,.472-.476.95.95,0,0,0,.012-.691L54.836,19.03a.9.9,0,0,0-.9-.555c-.019,0-7.724,0-14.875,0s-14.855,0-14.875,0a1.089,1.089,0,0,0-.533.131.8.8,0,0,0-.366.424L20.32,26.944a.95.95,0,0,0,.012.691.872.872,0,0,0,.472.476l.019.008L9.6,34.175a.922.922,0,0,0-.369,1.2.836.836,0,0,0,.753.489.8.8,0,0,0,.382-.1l7.2-3.889V52.319a2.021,2.021,0,0,0-.589.305,2.149,2.149,0,0,0-.466.478,2.3,2.3,0,0,0,0,2.641,2.149,2.149,0,0,0,.466.478,2.021,2.021,0,0,0,.589.305V71.614h0ZM59.949,54.833h-4.29a.411.411,0,0,1,0-.82h4.29a.411.411,0,0,1,0,.82Zm-37.484,0h-4.29a.411.411,0,0,1,0-.82h4.29a.411.411,0,0,1,0,.82Zm9.571-24.1h0L22.2,26.762l2.345-6.252,9.832,3.975-2.345,6.252Zm14.051,0h0l-2.345-6.252,9.832-3.975,2.345,6.252-9.832,3.975ZM39.062,25.81h0L36.14,24.64l.126-.337a.951.951,0,0,0-.012-.691.873.873,0,0,0-.472-.476l-7.129-2.882H49.47l-7.129,2.882a.873.873,0,0,0-.472.476.948.948,0,0,0-.012.69l.126.337L39.062,25.81Z" transform="translate(7.6 7.601)" fill="#fff"/>
  <path id="Path_12" data-name="Path 12" d="M46.617,0A46.614,46.614,0,1,0,93.229,46.614,46.671,46.671,0,0,0,46.617,0Zm0,89.752A43.14,43.14,0,1,1,89.758,46.614,43.19,43.19,0,0,1,46.617,89.752Z" transform="translate(0 0)" fill="#fff"/>
  <path id="Path_13" data-name="Path 13" d="M46.617,0A46.614,46.614,0,1,0,93.229,46.614,46.671,46.671,0,0,0,46.617,0Zm0,89.752A43.14,43.14,0,1,1,89.758,46.614,43.19,43.19,0,0,1,46.617,89.752Z" transform="translate(0 0)" fill="#fff"/>
</svg>
