<svg id="Group_14" data-name="Group 14" xmlns="http://www.w3.org/2000/svg" width="93.229" height="93.229" viewBox="0 0 93.229 93.229">
  <g id="placeholder_1_" data-name="placeholder (1)" transform="translate(7.113 7.112)">
    <g id="Group_10" data-name="Group 10" transform="translate(25.641 17.282)">
      <g id="Group_9" data-name="Group 9">
        <path id="Path_9" data-name="Path 9" d="M180.03,112c-8.679,0-13.862,5.425-13.862,14.512,0,5.171,6.871,17.118,13.859,26.656,6.946-9.571,13.864-21.369,13.864-26.656C193.891,117.425,188.709,112,180.03,112Zm-.015,20.73a6.088,6.088,0,1,1,6.088-6.088A6.088,6.088,0,0,1,180.015,132.73Z" transform="translate(-166.168 -112)" fill="#fff"/>
      </g>
    </g>
    <g id="Group_12" data-name="Group 12">
      <g id="Group_11" data-name="Group 11">
        <path id="Path_10" data-name="Path 10" d="M39.5,0A39.5,39.5,0,1,0,79,39.5,39.5,39.5,0,0,0,39.5,0Zm2.313,63.623L39.5,66.66l-2.3-3.037c-1.692-2.212-16.5-21.98-16.5-31.829,0-11.815,7.375-19.45,18.8-19.45s18.8,7.635,18.8,19.45C58.3,41.628,43.493,61.4,41.815,63.623Z" fill="#fff"/>
      </g>
    </g>
  </g>
  <path id="Path_14" data-name="Path 14" d="M46.617,0A46.614,46.614,0,1,0,93.229,46.614,46.671,46.671,0,0,0,46.617,0Zm0,89.752A43.14,43.14,0,1,1,89.758,46.614,43.19,43.19,0,0,1,46.617,89.752Z" fill="#fff"/>
</svg>
