<svg xmlns="http://www.w3.org/2000/svg" width="1920.001" height="2341.15" viewBox="0 0 1920.001 2341.15">
  <path id="Subtraction_4" data-name="Subtraction 4" d="M-2726,6351H-4646V4009.85c10.788,3.006,22.338,6.452,34.332,10.243,26.675,8.432,56.08,18.7,92.538,32.3,32.425,12.1,66.037,25.2,101.624,39.071l.017.007.036.014c51.994,20.264,105.757,41.218,162.639,61.726,64.689,23.322,122.847,42.182,177.8,57.657,141.609,39.877,269.513,59.262,391.022,59.262s249.411-19.386,391.026-59.267c54.924-15.466,113.086-34.326,177.81-57.659,56.94-20.528,110.629-41.455,162.55-61.692l.022-.009.115-.043c42.513-16.572,82.668-32.224,120.911-46.2,42.813-15.643,76.992-26.9,107.565-35.413V6351h0Z" transform="translate(4646 -4009.85)" fill="#b58e8e"/>
</svg>
