<svg xmlns="http://www.w3.org/2000/svg" width="93.229" height="93.229" viewBox="0 0 93.229 93.229">
  <g id="restaurant-cutlery-circular-symbol-of-a-spoon-and-a-fork-in-a-circle" transform="translate(0)">
    <g id="Group_8" data-name="Group 8" transform="translate(0)">
      <path id="Path_6" data-name="Path 6" d="M69.14,29.813a39.287,39.287,0,0,0-16.921,74.756l1.23-23.777s-2.315-.76-2.821-1.007c-4.909-2.162-8.476-8.53-8.476-16.794,0-9.018,6.993-16.785,13.755-16.849h.025c6.763.064,13.756,7.831,13.756,16.849,0,8.264-3.571,14.628-8.47,16.794-.038.017-2.844,1.036-2.844,1.036l1.374,26.437a38.537,38.537,0,0,0,21.894-.885l1.218-23.56A12.631,12.631,0,0,1,75.2,77.5c-2.125-3.184,1.636-31.36,1.636-31.36h2.447V72.581h2.43V46.143H84.37V72.587h2.418V46.143h2.757V72.587h2.427V46.143h1.878s3.761,28.177,1.633,31.36A12.667,12.667,0,0,1,87.9,82.8l-.108.04,1.058,20.266A39.291,39.291,0,0,0,69.14,29.813Z" transform="translate(-22.522 -22.513)" fill="#fff"/>
      <path id="Path_7" data-name="Path 7" d="M93.936,143.545a11.3,11.3,0,0,1,.339-1.128.514.514,0,0,0-.286-.573.47.47,0,0,0-.617.134s-.269.428-.659,1.061a11.392,11.392,0,0,0-1.107,2.5,20.668,20.668,0,0,0-.758,3.627,17.3,17.3,0,0,0-.056,2.1,9.953,9.953,0,0,0,.4,2.229c.772,2.2,1.367,4.321,3.514,6.417a12.1,12.1,0,0,0,1.879,1.522l.178.125c.108.071.212.137.314.2a3.6,3.6,0,0,0,.757.313.455.455,0,0,0,.516-.216.461.461,0,0,0-.152-.546,4.917,4.917,0,0,1-.559-.612,11.109,11.109,0,0,1-.72-.987c-.192-.279-.418-.595-.629-.9a31.816,31.816,0,0,1-2.482-6.106,8.121,8.121,0,0,1-.347-1.682,17.163,17.163,0,0,1-.1-1.8,23.738,23.738,0,0,1,.148-3.336A13.02,13.02,0,0,1,93.936,143.545Z" transform="translate(-68.552 -107.064)" fill="#fff"/>
      <path id="Path_8" data-name="Path 8" d="M46.617,0A46.614,46.614,0,1,0,93.229,46.614,46.671,46.671,0,0,0,46.617,0Zm0,89.752A43.14,43.14,0,1,1,89.758,46.614,43.19,43.19,0,0,1,46.617,89.752Z" fill="#fff"/>
      <path id="Path_11" data-name="Path 11" d="M46.617,0A46.614,46.614,0,1,0,93.229,46.614,46.671,46.671,0,0,0,46.617,0Zm0,89.752A43.14,43.14,0,1,1,89.758,46.614,43.19,43.19,0,0,1,46.617,89.752Z" fill="#fff"/>
    </g>
  </g>
</svg>
